<?xml version="1.0" standalone="no"?>
<!DOCTYPE svg PUBLIC "-//W3C//DTD SVG 20010904//EN"
 "http://www.w3.org/TR/2001/REC-SVG-20010904/DTD/svg10.dtd">
<svg version="1.0" xmlns="http://www.w3.org/2000/svg"
 width="500.000000pt" height="500.000000pt" viewBox="0 0 500.000000 500.000000"
 preserveAspectRatio="xMidYMid meet">

<g transform="translate(0.000000,500.000000) scale(0.100000,-0.100000)"
fill="#000000" stroke="none">
<path d="M2370 4814 c-92 -8 -297 -35 -345 -46 -300 -64 -604 -195 -847 -364
-222 -154 -465 -404 -613 -629 -252 -384 -377 -802 -378 -1265 -1 -250 23
-417 97 -685 52 -188 175 -441 307 -635 264 -386 661 -695 1109 -861 47 -17
99 -35 115 -39 17 -4 72 -20 124 -34 167 -45 312 -61 566 -61 248 1 372 14
555 61 564 146 1010 459 1356 949 194 276 337 663 379 1029 28 240 12 569 -39
776 -81 333 -189 573 -375 835 -85 121 -137 182 -251 295 -421 421 -966 654
-1575 673 -77 3 -160 3 -185 1z m251 -244 c589 -43 1073 -285 1460 -731 111
-127 225 -307 303 -479 199 -433 240 -961 111 -1411 -64 -222 -168 -449 -270
-590 -25 -35 -56 -80 -69 -99 -70 -104 -312 -346 -416 -416 -19 -13 -64 -44
-100 -70 -144 -104 -377 -210 -590 -269 -169 -47 -294 -65 -490 -72 -452 -16
-896 118 -1265 382 -35 25 -69 51 -77 58 -7 7 -24 20 -38 30 -34 23 -223 211
-275 272 -221 262 -389 624 -446 960 -90 531 20 1076 302 1494 35 52 71 105
80 118 41 61 197 229 276 298 393 344 794 501 1358 533 11 1 77 -3 146 -8z"/>
<path d="M1311 3414 c-122 -27 -198 -81 -249 -177 l-27 -52 0 -735 c0 -726 0
-736 21 -781 41 -87 109 -147 209 -184 44 -16 90 -19 382 -23 216 -2 358 0
404 8 119 18 226 86 269 170 31 62 40 136 40 340 l0 200 -265 0 -265 0 0 -163
c0 -158 -1 -164 -23 -185 -20 -19 -35 -22 -113 -22 -82 0 -93 2 -112 23 l-22
23 0 590 0 591 23 21 c20 19 35 22 114 22 87 0 93 -1 112 -26 19 -25 21 -40
21 -190 l0 -164 266 0 266 0 -4 233 c-4 251 -9 279 -64 358 -36 52 -129 104
-223 124 -99 21 -664 20 -760 -1z"/>
<path d="M2470 3420 c0 -6 16 -72 35 -148 19 -75 62 -249 95 -387 34 -137 104
-421 155 -630 52 -209 115 -465 140 -570 25 -104 48 -198 51 -207 5 -17 29
-18 317 -18 l312 0 39 163 c21 89 67 277 102 417 77 311 229 929 290 1180 25
102 47 191 49 198 3 9 -56 12 -274 12 l-279 0 -15 -87 c-9 -49 -30 -163 -47
-255 -17 -93 -44 -241 -60 -330 -47 -260 -88 -487 -101 -566 -7 -41 -16 -67
-20 -60 -3 7 -17 69 -29 138 -12 69 -35 199 -51 290 -16 91 -43 237 -59 325
-16 88 -43 241 -61 340 -17 99 -33 186 -35 193 -4 16 -554 18 -554 2z"/>
</g>
</svg>
