<?xml version="1.0" standalone="no"?>
<!DOCTYPE svg PUBLIC "-//W3C//DTD SVG 20010904//EN"
 "http://www.w3.org/TR/2001/REC-SVG-20010904/DTD/svg10.dtd">
<svg version="1.0" xmlns="http://www.w3.org/2000/svg"
 width="500.000000pt" height="500.000000pt" viewBox="0 0 500.000000 500.000000"
 preserveAspectRatio="xMidYMid meet">

<g transform="translate(0.000000,500.000000) scale(0.100000,-0.100000)"
fill="#000000" stroke="none">
<path d="M2375 4814 c-643 -61 -1102 -266 -1511 -678 -300 -302 -485 -617
-598 -1021 -77 -276 -100 -622 -62 -915 100 -768 578 -1433 1278 -1777 226
-112 460 -181 717 -214 240 -30 533 -21 751 22 251 50 530 158 740 287 627
386 1024 1001 1106 1716 27 241 10 569 -40 776 -81 332 -190 575 -375 835
-266 376 -659 676 -1085 829 -147 53 -352 104 -486 120 -130 16 -366 27 -435
20z m246 -244 c589 -43 1073 -285 1460 -731 238 -273 405 -640 466 -1025 25
-153 24 -477 -1 -634 -45 -285 -167 -597 -318 -816 -29 -42 -60 -86 -68 -98
-81 -117 -312 -348 -427 -426 -11 -8 -52 -37 -90 -64 -149 -107 -379 -212
-593 -271 -169 -47 -294 -65 -490 -72 -452 -16 -896 118 -1265 382 -35 25 -69
51 -77 58 -7 7 -24 21 -38 30 -48 33 -263 253 -316 324 -271 360 -407 722
-433 1156 -28 453 97 908 351 1279 206 301 477 538 793 695 271 135 539 201
900 221 11 1 77 -3 146 -8z"/>
<path d="M2234 4345 c-175 -23 -386 -87 -554 -168 -166 -81 -285 -160 -430
-287 -318 -278 -526 -642 -612 -1070 -20 -100 -23 -145 -23 -350 0 -205 3
-250 23 -350 74 -367 242 -697 489 -956 71 -76 223 -205 304 -260 176 -119
424 -234 505 -234 26 0 44 8 65 29 l29 29 0 192 0 192 -22 -6 c-47 -15 -253
-19 -311 -7 -82 18 -188 74 -236 126 -22 24 -64 93 -93 151 -53 110 -98 164
-222 268 -25 21 -46 45 -46 53 0 38 136 41 208 4 59 -30 128 -97 178 -172 52
-77 107 -131 159 -156 33 -16 34 -17 15 -30 -22 -16 -17 -40 11 -48 28 -9 51
12 39 35 -9 16 -6 17 33 8 51 -12 148 -4 227 18 l59 16 11 51 c13 61 53 143
87 178 l25 27 -74 11 c-249 40 -401 104 -536 226 -108 98 -176 219 -218 389
-31 124 -44 350 -25 448 24 124 78 245 150 336 l29 37 -14 65 c-34 159 0 427
57 445 57 19 240 -42 393 -130 l113 -64 96 19 c246 50 474 51 717 6 l135 -26
65 39 c107 63 181 99 257 125 79 27 172 41 189 29 53 -38 82 -293 50 -443 -14
-65 -14 -65 13 -100 52 -67 99 -156 127 -240 27 -80 29 -94 29 -260 0 -156 -3
-186 -27 -281 -44 -175 -112 -295 -220 -393 -139 -126 -284 -184 -577 -232
l-33 -5 25 -27 c14 -15 41 -59 59 -97 l33 -70 5 -358 5 -359 28 -24 c38 -33
78 -31 184 10 197 75 380 185 540 324 119 103 158 143 234 237 206 253 336
530 401 855 20 100 23 145 23 345 0 202 -3 245 -24 350 -63 318 -181 580 -370
823 -128 164 -320 337 -486 437 -244 148 -504 241 -754 271 -143 17 -382 16
-517 -1z"/>
<path d="M1270 1676 c0 -10 9 -16 21 -16 24 0 21 23 -4 28 -10 2 -17 -3 -17
-12z"/>
<path d="M1362 1614 c4 -20 34 -41 45 -31 10 11 -11 41 -31 45 -12 3 -17 -2
-14 -14z"/>
<path d="M1423 1524 c-7 -19 30 -59 46 -50 16 10 14 32 -5 50 -20 20 -33 20
-41 0z"/>
<path d="M1522 1389 c4 -27 29 -44 53 -35 16 6 16 8 2 29 -8 12 -24 23 -36 25
-18 3 -22 -1 -19 -19z"/>
<path d="M1815 1307 c-24 -18 -11 -37 25 -37 36 0 49 19 25 37 -11 7 -22 13
-25 13 -3 0 -14 -6 -25 -13z"/>
<path d="M1972 1308 c-17 -17 -15 -35 4 -42 22 -8 56 12 52 32 -4 21 -39 27
-56 10z"/>
</g>
</svg>
