<?xml version="1.0" standalone="no"?>
<!DOCTYPE svg PUBLIC "-//W3C//DTD SVG 20010904//EN"
 "http://www.w3.org/TR/2001/REC-SVG-20010904/DTD/svg10.dtd">
<svg version="1.0" xmlns="http://www.w3.org/2000/svg"
 width="500.000000pt" height="500.000000pt" viewBox="0 0 500.000000 500.000000"
 preserveAspectRatio="xMidYMid meet">

<g transform="translate(0.000000,500.000000) scale(0.100000,-0.100000)"
fill="#000000" stroke="none">
<path d="M2370 4814 c-285 -25 -494 -71 -710 -155 -314 -123 -548 -277 -791
-519 -304 -302 -489 -618 -603 -1025 -103 -371 -107 -817 -9 -1185 113 -425
300 -755 598 -1055 307 -309 653 -508 1070 -615 559 -143 1178 -66 1680 209
186 101 377 245 529 397 372 373 600 844 661 1368 28 240 12 568 -39 776 -42
173 -90 317 -141 428 -14 29 -25 55 -25 57 0 2 -25 51 -56 107 -108 198 -235
369 -394 529 -428 429 -970 663 -1585 682 -77 3 -160 3 -185 1z m251 -244
c473 -34 875 -196 1217 -489 485 -415 749 -1004 729 -1631 -6 -186 -26 -338
-63 -467 -14 -49 -29 -104 -34 -123 -29 -115 -152 -366 -243 -498 -29 -41 -59
-84 -67 -96 -81 -117 -312 -348 -427 -426 -11 -8 -51 -37 -88 -63 -207 -148
-538 -278 -820 -322 -162 -26 -407 -30 -565 -11 -180 23 -252 38 -396 85 -145
47 -297 115 -417 188 -88 52 -203 131 -229 156 -7 7 -23 20 -36 28 -35 25
-212 199 -268 264 -377 440 -552 1058 -465 1639 24 161 28 177 83 349 158 499
549 954 1028 1196 283 143 544 209 915 229 11 1 77 -3 146 -8z"/>
<path d="M1102 3710 c-47 -11 -103 -59 -129 -110 l-23 -44 0 -1046 c0 -732 3
-1057 11 -1085 16 -57 88 -121 151 -135 61 -13 2715 -14 2771 -1 51 12 112 56
140 100 l22 36 3 1053 c2 751 -1 1066 -9 1095 -15 57 -81 120 -142 135 -53 14
-2739 15 -2795 2z m2504 -219 c-5 -8 -130 -105 -356 -276 -79 -60 -318 -243
-424 -326 -59 -46 -120 -93 -136 -104 -15 -11 -55 -41 -90 -67 -49 -38 -70
-48 -100 -48 -30 0 -51 10 -100 48 -35 26 -75 56 -90 67 -16 11 -77 58 -136
104 -106 83 -345 266 -424 326 -226 171 -351 268 -356 276 -3 5 446 9 1106 9
660 0 1109 -4 1106 -9z m-2345 -175 c46 -36 120 -92 164 -126 44 -34 112 -86
150 -116 212 -162 330 -253 413 -317 51 -40 107 -83 126 -97 18 -14 70 -53
115 -88 127 -98 169 -117 265 -117 45 0 98 6 119 14 21 7 84 47 139 89 56 43
116 88 135 102 18 14 74 57 125 97 51 39 148 113 215 165 66 51 156 120 200
153 350 270 396 305 405 305 4 0 8 -423 8 -940 l0 -940 -1340 0 -1340 0 0 940
c0 517 4 940 8 940 5 0 47 -29 93 -64z"/>
</g>
</svg>
