<?xml version="1.0" standalone="no"?>
<!DOCTYPE svg PUBLIC "-//W3C//DTD SVG 20010904//EN"
 "http://www.w3.org/TR/2001/REC-SVG-20010904/DTD/svg10.dtd">
<svg version="1.0" xmlns="http://www.w3.org/2000/svg"
 width="500.000000pt" height="500.000000pt" viewBox="0 0 500.000000 500.000000"
 preserveAspectRatio="xMidYMid meet">

<g transform="translate(0.000000,500.000000) scale(0.100000,-0.100000)"
fill="#000000" stroke="none">
<path d="M2375 4814 c-404 -39 -689 -119 -980 -277 -478 -260 -866 -700 -1058
-1202 -101 -265 -150 -535 -150 -830 -1 -369 76 -699 238 -1029 122 -246 254
-429 449 -621 235 -232 519 -413 811 -520 180 -66 328 -102 514 -126 240 -30
533 -21 751 22 251 50 530 158 740 287 620 381 1009 978 1101 1687 33 250 18
587 -35 805 -111 456 -304 807 -616 1121 -428 429 -969 663 -1585 682 -77 3
-158 3 -180 1z m240 -244 c526 -35 975 -235 1334 -591 123 -123 169 -177 243
-284 190 -275 303 -553 355 -881 24 -150 24 -477 0 -629 -60 -382 -225 -737
-478 -1030 -279 -324 -616 -539 -1019 -650 -169 -47 -294 -65 -490 -72 -248
-8 -467 22 -696 96 -209 68 -407 168 -583 297 -98 70 -125 93 -119 99 3 3 74
23 159 45 85 21 212 55 283 74 l129 34 66 -33 c139 -70 279 -115 436 -142 135
-23 412 -23 550 1 196 33 445 131 608 239 372 244 636 649 713 1092 24 137 24
384 0 525 -80 471 -357 881 -760 1124 -449 271 -1013 309 -1486 101 -195 -86
-338 -184 -490 -335 -203 -201 -342 -434 -421 -702 -79 -273 -79 -624 1 -898
30 -102 124 -325 141 -336 14 -9 11 -35 -20 -145 -16 -57 -46 -165 -66 -239
-20 -74 -42 -151 -47 -170 l-11 -34 -34 39 c-62 71 -192 264 -244 362 -207
389 -286 854 -219 1283 64 415 222 750 505 1073 69 79 237 235 298 276 13 9
66 45 118 80 275 186 622 302 984 330 55 5 105 9 110 9 6 1 73 -3 150 -8z
m125 -740 c203 -43 385 -120 544 -229 91 -63 243 -208 303 -291 155 -213 242
-442 263 -689 35 -409 -101 -781 -390 -1072 -185 -186 -371 -292 -630 -358
-308 -80 -635 -42 -927 105 -70 35 -133 64 -142 64 -15 0 -138 -32 -391 -100
-58 -16 -106 -27 -108 -25 -1 1 9 45 23 96 14 52 41 150 59 219 19 69 39 136
44 150 8 21 2 37 -39 105 -63 105 -123 249 -155 377 -32 125 -44 381 -24 507
26 164 85 344 147 443 13 21 23 40 23 43 0 14 102 156 154 213 221 247 518
405 847 452 81 11 326 5 399 -10z"/>
<path d="M1865 3231 c-42 -25 -110 -104 -135 -156 -31 -64 -53 -181 -45 -243
23 -189 145 -402 363 -634 212 -225 399 -342 697 -438 90 -28 110 -31 200 -28
88 3 108 7 169 35 102 49 161 102 186 170 12 31 24 85 27 119 l6 62 -149 72
c-275 134 -267 132 -322 58 -70 -95 -133 -158 -156 -158 -25 0 -148 57 -221
103 -64 40 -181 141 -239 206 -65 73 -146 196 -146 222 0 12 23 46 52 78 62
68 89 123 78 160 -7 23 -23 63 -117 286 -37 90 -59 105 -146 105 -52 0 -80 -5
-102 -19z"/>
</g>
</svg>
